<?xml version="1.0" encoding="UTF-8" standalone="no"?>
<svg width="401px" height="449px" viewBox="0 0 401 449" version="1.1" xmlns="http://www.w3.org/2000/svg" xmlns:xlink="http://www.w3.org/1999/xlink" xmlns:sketch="http://www.bohemiancoding.com/sketch/ns">
    <!-- Generator: Sketch 3.3.2 (12043) - http://www.bohemiancoding.com/sketch -->
    <title>A</title>
    <desc>Created with Sketch.</desc>
    <defs></defs>
    <g id="Page-1" stroke="none" stroke-width="1" fill="none" fill-rule="evenodd" sketch:type="MSPage">
        <g id="A" sketch:type="MSLayerGroup" fill="#FFFFFF">
            <g id="Group" sketch:type="MSShapeGroup">
                <path d="M120.953,228.698 C119.38,227.125 117.014,226.654 114.959,227.506 C112.904,228.357 111.564,230.363 111.564,232.587 L111.564,330.196 C111.564,333.234 114.026,335.696 117.064,335.696 L214.672,335.696 C216.897,335.696 218.902,334.356 219.754,332.301 C220.605,330.246 220.134,327.88 218.562,326.307 L120.953,228.698 L120.953,228.698 Z M122.564,324.696 L122.564,245.865 L201.394,324.696 L122.564,324.696 L122.564,324.696 Z" id="Shape"></path>
                <path d="M398.521,33.882 L369.924,5.285 C367.776,3.137 364.294,3.138 362.146,5.285 L196.874,170.557 C196.345,171.086 195.93,171.717 195.653,172.411 L177.537,217.899 L104.639,145 L117.721,131.919 C119.869,129.771 119.869,126.289 117.721,124.141 C115.573,121.993 112.091,121.993 109.943,124.141 L96.861,137.222 L74.917,115.278 L74.917,5.5 C74.917,2.462 72.455,0 69.417,0 L6.361,0 C3.323,0 0.861,2.462 0.861,5.5 L0.861,443.492 C0.861,446.53 3.323,448.992 6.361,448.992 L69.417,448.992 C72.455,448.992 74.917,446.53 74.917,443.492 L74.917,383.343 L327.426,383.343 L342.786,398.703 C343.86,399.777 345.267,400.314 346.675,400.314 C348.083,400.314 349.49,399.777 350.564,398.703 C352.712,396.555 352.712,393.073 350.564,390.925 L185.907,226.268 L231.395,208.152 C232.089,207.875 232.72,207.46 233.249,206.932 L398.521,41.66 C399.552,40.629 400.132,39.23 400.132,37.771 C400.132,36.312 399.552,34.913 398.521,33.882 L398.521,33.882 Z M63.916,437.992 L11.861,437.992 L11.861,428.205 L21.308,428.205 C24.346,428.205 26.808,425.743 26.808,422.705 C26.808,419.667 24.346,417.205 21.308,417.205 L11.861,417.205 L11.861,399.889 L21.308,399.889 C24.346,399.889 26.808,397.427 26.808,394.389 C26.808,391.351 24.346,388.889 21.308,388.889 L11.861,388.889 L11.861,371.574 L21.308,371.574 C24.346,371.574 26.808,369.112 26.808,366.074 C26.808,363.036 24.346,360.574 21.308,360.574 L11.861,360.574 L11.861,343.258 L21.308,343.258 C24.346,343.258 26.808,340.796 26.808,337.758 C26.808,334.72 24.346,332.258 21.308,332.258 L11.861,332.258 L11.861,314.943 L21.308,314.943 C24.346,314.943 26.808,312.481 26.808,309.443 C26.808,306.405 24.346,303.943 21.308,303.943 L11.861,303.943 L11.861,286.627 L21.308,286.627 C24.346,286.627 26.808,284.165 26.808,281.127 C26.808,278.089 24.346,275.627 21.308,275.627 L11.861,275.627 L11.861,258.312 L21.308,258.312 C24.346,258.312 26.808,255.85 26.808,252.812 C26.808,249.774 24.346,247.312 21.308,247.312 L11.861,247.312 L11.861,229.996 L21.308,229.996 C24.346,229.996 26.808,227.534 26.808,224.496 C26.808,221.458 24.346,218.996 21.308,218.996 L11.861,218.996 L11.861,201.681 L21.308,201.681 C24.346,201.681 26.808,199.219 26.808,196.181 C26.808,193.143 24.346,190.681 21.308,190.681 L11.861,190.681 L11.861,173.365 L21.308,173.365 C24.346,173.365 26.808,170.903 26.808,167.865 C26.808,164.827 24.346,162.365 21.308,162.365 L11.861,162.365 L11.861,145.05 L21.308,145.05 C24.346,145.05 26.808,142.588 26.808,139.55 C26.808,136.512 24.346,134.05 21.308,134.05 L11.861,134.05 L11.861,116.734 L21.308,116.734 C24.346,116.734 26.808,114.272 26.808,111.234 C26.808,108.196 24.346,105.734 21.308,105.734 L11.861,105.734 L11.861,88.418 L21.308,88.418 C24.346,88.418 26.808,85.956 26.808,82.918 C26.808,79.88 24.346,77.418 21.308,77.418 L11.861,77.418 L11.861,60.103 L21.308,60.103 C24.346,60.103 26.808,57.641 26.808,54.603 C26.808,51.565 24.346,49.103 21.308,49.103 L11.861,49.103 L11.861,31.787 L21.308,31.787 C24.346,31.787 26.808,29.325 26.808,26.287 C26.808,23.249 24.346,20.787 21.308,20.787 L11.861,20.787 L11.861,11 L63.917,11 L63.917,437.992 L63.916,437.992 Z M74.916,372.343 L74.916,130.833 L101.682,157.599 L86.033,173.248 C83.885,175.396 83.885,178.878 86.033,181.026 C87.107,182.1 88.514,182.637 89.922,182.637 C91.33,182.637 92.737,182.1 93.811,181.026 L109.46,165.377 L121.704,177.621 L106.055,193.27 C103.907,195.418 103.907,198.9 106.055,201.048 C107.129,202.122 108.536,202.659 109.944,202.659 C111.352,202.659 112.759,202.122 113.833,201.048 L129.482,185.399 L141.726,197.643 L126.077,213.292 C123.929,215.44 123.929,218.922 126.077,221.07 C127.151,222.144 128.558,222.681 129.966,222.681 C131.374,222.681 132.781,222.144 133.855,221.07 L149.504,205.421 L161.748,217.665 L146.099,233.314 C143.951,235.462 143.951,238.944 146.099,241.092 C147.173,242.166 148.58,242.703 149.988,242.703 C151.396,242.703 152.803,242.166 153.877,241.092 L169.526,225.443 L181.77,237.687 L166.121,253.336 C163.973,255.484 163.973,258.966 166.121,261.114 C167.195,262.188 168.602,262.725 170.01,262.725 C171.418,262.725 172.825,262.188 173.899,261.114 L189.548,245.465 L201.792,257.709 L186.143,273.358 C183.995,275.506 183.995,278.988 186.143,281.136 C187.217,282.21 188.624,282.747 190.032,282.747 C191.44,282.747 192.847,282.21 193.921,281.136 L209.57,265.487 L221.814,277.731 L206.165,293.38 C204.017,295.528 204.017,299.01 206.165,301.158 C207.239,302.232 208.646,302.769 210.054,302.769 C211.462,302.769 212.869,302.232 213.943,301.158 L229.592,285.509 L241.836,297.753 L226.187,313.402 C224.039,315.55 224.039,319.032 226.187,321.18 C227.261,322.254 228.668,322.791 230.076,322.791 C231.483,322.791 232.891,322.254 233.965,321.18 L249.614,305.531 L261.858,317.775 L246.209,333.424 C244.061,335.572 244.061,339.054 246.209,341.202 C247.283,342.276 248.69,342.813 250.098,342.813 C251.506,342.813 252.913,342.276 253.987,341.202 L269.636,325.553 L281.88,337.797 L266.231,353.446 C264.083,355.594 264.083,359.076 266.231,361.224 C267.305,362.298 268.712,362.835 270.12,362.835 C271.528,362.835 272.935,362.298 274.009,361.224 L289.658,345.575 L316.424,372.341 L74.916,372.341 L74.916,372.343 Z M222.84,188.744 L359.599,51.985 L366.119,58.505 L229.36,195.264 L222.84,188.744 L222.84,188.744 Z M215.062,180.966 L208.542,174.446 L345.301,37.687 L351.821,44.207 L215.062,180.966 L215.062,180.966 Z M202.782,184.243 L219.563,201.024 L191.675,212.131 L202.782,184.243 L202.782,184.243 Z M373.898,50.727 L353.08,29.909 L366.036,16.953 L386.854,37.771 L373.898,50.727 L373.898,50.727 Z" id="Shape"></path>
                <path d="M363.999,404.36 C361.851,402.212 358.369,402.212 356.221,404.36 C354.073,406.508 354.073,409.99 356.221,412.138 L373.191,429.108 C374.265,430.182 375.672,430.719 377.08,430.719 C378.487,430.719 379.895,430.182 380.969,429.108 C383.117,426.96 383.117,423.478 380.969,421.33 L363.999,404.36 L363.999,404.36 Z" id="Shape"></path>
                <path d="M394.403,434.764 C392.255,432.617 388.773,432.618 386.625,434.767 C384.478,436.916 384.479,440.398 386.628,442.545 L386.974,442.89 C388.048,443.963 389.454,444.5 390.862,444.5 C392.27,444.5 393.678,443.962 394.753,442.888 C396.9,440.739 396.899,437.257 394.75,435.11 L394.403,434.764 L394.403,434.764 Z" id="Shape"></path>
                <path d="M218.483,28.878 C219.891,28.878 221.299,28.341 222.373,27.266 L223.25,26.389 C225.397,24.241 225.397,20.758 223.249,18.611 C221.101,16.463 217.618,16.464 215.471,18.612 L214.594,19.49 C212.447,21.638 212.447,25.12 214.595,27.268 C215.669,28.341 217.076,28.878 218.483,28.878 L218.483,28.878 Z" id="Shape"></path>
                <path d="M188.077,59.283 C189.484,59.283 190.892,58.746 191.966,57.672 L208.937,40.702 C211.085,38.554 211.085,35.072 208.937,32.924 C206.789,30.777 203.307,30.776 201.159,32.924 L184.188,49.894 C182.04,52.042 182.04,55.524 184.188,57.672 C185.262,58.746 186.67,59.283 188.077,59.283 L188.077,59.283 Z" id="Shape"></path>
                <path d="M157.672,89.689 C159.079,89.689 160.487,89.152 161.561,88.078 L178.532,71.108 C180.68,68.96 180.68,65.478 178.532,63.33 C176.384,61.182 172.902,61.182 170.754,63.33 L153.782,80.3 C151.634,82.448 151.634,85.93 153.782,88.078 C154.857,89.152 156.264,89.689 157.672,89.689 L157.672,89.689 Z" id="Shape"></path>
                <path d="M127.266,120.094 C128.674,120.094 130.081,119.557 131.155,118.483 L148.125,101.513 C150.273,99.365 150.273,95.883 148.125,93.735 C145.977,91.587 142.494,91.588 140.347,93.735 L123.377,110.706 C121.229,112.854 121.229,116.336 123.377,118.484 C124.451,119.558 125.859,120.094 127.266,120.094 L127.266,120.094 Z" id="Shape"></path>
            </g>
        </g>
    </g>
</svg>