<?xml version="1.0" ?><svg enable-background="new 0 0 504 504" id="Layer_1" version="1.1" viewBox="0 0 504 504" xml:space="preserve" xmlns="http://www.w3.org/2000/svg" xmlns:xlink="http://www.w3.org/1999/xlink"><path d="M456.6,261c-9.2,58.5-27.1,75.6-58.8,114.9c-31.7,33.3-77.3,88.9-141.9,85.8c-58.5-9.2-75.6-27.1-114.9-58.8  c-33.3-31.7-88.9-77.3-85.8-141.9c9.2-58.5,27.1-75.6,58.8-114.9c31.7-33.3,77.3-88.9,141.9-85.8c58.5,9.2,75.6,27.1,114.9,58.8  C404.1,150.8,459.6,196.4,456.6,261z" fill="#3765AF"/><g><path d="M341.5,177.8c-0.5-16.6-15.4-20.1-15.4-20.1s-50.8-7.8-73.2-10.6S232,166,232,166s5,157.8,5.5,177.2   c0.5,23.2,22.4,19.6,22.4,19.6l76.8-13.3c13.8-2.8,14.6-20.1,14.6-20.1S342.3,196.2,341.5,177.8   C340.7,161.2,342.3,196.2,341.5,177.8L341.5,177.8L341.5,177.8z M324.4,311.7l-57.1,6c0,0-16.6,2.5-17.1-17.6   c-0.3-14.9-3.5-100.2-3.5-100.2s-1.3-15.6,15.9-14.3c17.6,1.3,59.2,4.5,59.2,4.5s11.1,2.8,11.6,15.4c0.5,13.8,5.3,90.9,5.3,90.9   S340.2,309.2,324.4,311.7L324.4,311.7L324.4,311.7z" fill="#FFFFFF"/><path d="M184.7,288.8l-10.6,0.8c0,0-10.6,1.5-10.8-10.1c-0.3-8.6-1.3-57.1-1.3-57.1s-0.8-9.1,10.1-8.3   c2.8,0.3,6.8,0.5,11.1,0.8c-0.3-8.1-0.3-15.1-0.5-20.6c-6-0.5-11.6-1-15.6-1.5c-14.3-1.5-13.6,10.6-13.6,10.6s1.8,89.4,2,100.2   c0.5,13.1,14.3,11.1,14.3,11.1l15.1-1.5C184.9,306.2,184.7,298.1,184.7,288.8L184.7,288.8L184.7,288.8z" fill="#FFFFFF"/><path d="M226.5,207.8c0-1.3-0.3-2.3-0.5-3c-4.5-0.5-16.1-3.5-19.9,0.5c-2.3,2.5-1.5,7.8-1.3,10.6   c5,0.3,8.3,0.5,8.3,0.5s7,1.5,7.6,8.8c0.3,8.1,0.3,52.9,0.3,52.9s0.8,7.3-9.3,8.8l-5.3,0.5c0,1.5,0,2.8,0,3.8   c0.3,12.8,13.8,8.8,22.4,7.8c0.8-13.6-0.5-27.4-0.8-41C227.5,241.3,227.2,224.4,226.5,207.8C226.5,206.5,227,217.9,226.5,207.8   L226.5,207.8L226.5,207.8z" fill="#FFFFFF"/><path d="M231,304.2l-15.4,1.5c0,0-14.3,2-14.6-14.3c-0.3-12.3-1.8-81.6-1.8-81.6s-1-12.8,13.6-11.8   c3.8,0.3,9.1,0.8,14.6,1.3c-0.5-13.3-0.8-23.7-1-29.2c-7.8-0.8-15.1-1.5-20.4-2.3c-19.4-2.3-18.1,15.1-18.1,15.1   s2.3,126.9,2.8,142.2c0.5,18.6,19.4,15.6,19.4,15.6l21.6-2.8C231.8,330.9,231.5,318.8,231,304.2L231,304.2L231,304.2z" fill="#FFFFFF"/><path d="M262.2,190.9c-2.8-0.3-6,0-8.1,2c-2,2.3-2.3,5.3-2,8.3c7.8,0.8,13.3,1.3,13.3,1.3s9.6,2.3,10.1,12.6   c0.5,11.3,3.3,73,3.3,73s1,10.3-12.6,12.6l-10.3,1c1.5,16.1,22.4,9.3,33,8.3c-1.3-24.4-4.5-99.7-5.3-117.3   C275.6,191.9,267.7,191.4,262.2,190.9C261.7,190.9,267.7,191.4,262.2,190.9L262.2,190.9L262.2,190.9z" fill="#FFFFFF"/></g></svg>